<?xml version="1.0" encoding="utf-8"?>
<!-- Generator: Adobe Illustrator 27.5.0, SVG Export Plug-In . SVG Version: 6.00 Build 0)  -->
<svg version="1.1" id="Layer_1" xmlns="http://www.w3.org/2000/svg" xmlns:xlink="http://www.w3.org/1999/xlink" x="0px" y="0px"
	 viewBox="0 0 2400 2400" style="enable-background:new 0 0 2400 2400;" xml:space="preserve">
<g>
	<g>
		<defs>
			<rect id="SVGID_1_" x="31.083" y="31" width="2337.5" height="2337.5"/>
		</defs>
		<clipPath id="SVGID_00000095337496481234992230000003802951579406113682_">
			<use xlink:href="#SVGID_1_"  style="overflow:visible;"/>
		</clipPath>
		<g style="clip-path:url(#SVGID_00000095337496481234992230000003802951579406113682_);">
			<defs>
				<rect id="SVGID_00000135691145083883707520000012540469996468321435_" x="31.083" y="31" width="2337.5" height="2337.5"/>
			</defs>
			<clipPath id="SVGID_00000005970611091916948010000017294931945247025312_">
				<use xlink:href="#SVGID_00000135691145083883707520000012540469996468321435_"  style="overflow:visible;"/>
			</clipPath>
			<path style="clip-path:url(#SVGID_00000005970611091916948010000017294931945247025312_);fill:#FFFFFF;" d="M2050.094,368.072
				v1663.355c0,54.834-44.607,99.451-99.45,99.451H449.023c-54.844,0-99.451-44.617-99.451-99.451V368.072
				c0-54.834,44.607-99.451,99.451-99.451h1501.621C2005.487,268.622,2050.094,313.239,2050.094,368.072"/>
			<path style="clip-path:url(#SVGID_00000005970611091916948010000017294931945247025312_);fill:#2D743A;" d="M1950.644,268.622
				H449.023c-54.844,0-99.45,44.617-99.45,99.451v1663.355c0,54.834,44.606,99.451,99.45,99.451h1501.62
				c54.843,0,99.45-44.617,99.45-99.451V368.073C2050.094,313.239,2005.486,268.622,1950.644,268.622 M2024.255,2031.428
				c0,40.585-33.026,73.602-73.611,73.602H449.023c-40.585,0-73.612-33.017-73.612-73.602V368.073
				c0-40.585,33.027-73.602,73.612-73.602h1501.62c40.585,0,73.611,33.017,73.611,73.602V2031.428z"/>
			<path style="clip-path:url(#SVGID_00000005970611091916948010000017294931945247025312_);fill:#2D743A;" d="M702.584,440.399
				v600.932H865.05l165.105-189.951h414.935l134.806,227.984c0,0,3.38,62.129-65.703,51.776l-110.515-163.985h-125.952
				c0,0,108.635,233.078,122.563,467.841l283.149,11.181l1.218,0.049l1.042-0.029h0.166l0.039-1.938l0.925-1003.859H702.584z
				 M1067,812.529c-55.788,0-101.019-45.231-101.019-101.019c0-55.788,45.231-101.019,101.019-101.019
				c55.788,0,101.009,45.231,101.009,101.019C1168.009,767.298,1122.788,812.529,1067,812.529"/>
			<path style="clip-path:url(#SVGID_00000005970611091916948010000017294931945247025312_);fill:#2D743A;" d="M1788.869,1939.165
				l-702.799-6.779l-93.558-117.469c-31.634-22.781-67.408-21.086-82.65-3.389c-9.788,11.298-9.418,26.92-8.659,34.449
				l51.766,93.188l-153.622-8.658l-89.799-103.542l-6.964-656.107l226.289-6.964l117.479-148.538
				c5.084,27.67,60.434,248.7,60.434,248.7l-217.641,410.981c-0.565,1.695-10.723,34.264,10.363,58.73
				c17.697,20.336,49.321,25.985,76.056,12.058c0,0,279.575-542.203,277.88-473.11c0,4.519,0,9.788,0.37,15.622
				c5.464,81.52,56.675,272.796,56.675,272.796h420.049c0,0,35.676-19.947,34.887-61.126c0,0-0.077-37.829-33.943-52.613
				l-45.62-1.188v-0.01l52.126-1.432c28.829,11.376,45.795,42.572,41.277,69.872c-3.575,20.891-19.675,40.848-40.761,48.756
				l-54.493,0.166l-2.269,273.76L1788.869,1939.165z"/>
			<polygon style="clip-path:url(#SVGID_00000005970611091916948010000017294931945247025312_);fill:#FDFEFE;" points="
				1685.698,1446.196 1684.655,1446.225 1683.438,1446.176 1683.438,1446.137 			"/>
		</g>
	</g>
</g>
</svg>
