<?xml version="1.0" encoding="utf-8"?>
<!-- Generator: Adobe Illustrator 27.5.0, SVG Export Plug-In . SVG Version: 6.00 Build 0)  -->
<svg version="1.1" xmlns="http://www.w3.org/2000/svg" xmlns:xlink="http://www.w3.org/1999/xlink" x="0px" y="0px"
	 viewBox="0 0 1122 1122" style="enable-background:new 0 0 1122 1122;" xml:space="preserve">
<g id="Bg">
	<g>
		<g>
			<rect style="fill:#FFFFFF;" width="1122" height="1122"/>
		</g>
	</g>
</g>
<g id="Object">
	<g>
		<polygon style="fill:none;" points="592.157,648.316 561.001,569.53 529.845,648.316 		"/>
		<polygon style="fill:none;" points="519.98,678.038 518.153,677.88 495.088,736.243 626.914,736.243 603.85,677.88 
			602.022,678.038 		"/>
		<path style="fill:#616E7D;" d="M434.507,841.607c1.852,0.49,3.74,0.741,5.58,0.741c7.571,0,14.622-3.982,17.091-10.262
			l26.151-66.118h155.338l26.157,66.118c3.081,7.807,13.248,12.056,22.672,9.52c9.441-2.548,14.585-10.951,11.505-18.74
			L586.365,537.993c15.705-8.873,26.326-25.691,26.326-45.018c0-28.544-23.149-51.691-51.69-51.691
			c-28.547,0-51.69,23.146-51.69,51.691c0,19.328,10.622,36.146,26.339,45.018L423.002,822.867
			C419.915,830.656,425.065,839.059,434.507,841.607z M535.128,492.064c0-14.289,11.584-25.869,25.873-25.869
			c14.289,0,25.866,11.581,25.866,25.869c0,14.289-11.577,25.867-25.866,25.867C546.712,517.931,535.128,506.353,535.128,492.064z
			 M561.001,569.53l31.156,78.786h-62.312L561.001,569.53z M518.153,677.88l1.828,0.157h82.042l1.828-0.157l23.065,58.363H495.088
			L518.153,677.88z"/>
		<path style="fill:#616E7D;" d="M678.92,633.334c-8.086,6.861-16.819,13.045-25.975,18.411c-1.955,1.135-2.82,3.51-2.046,5.634
			l7.753,21.464c0.46,1.307,1.482,2.327,2.771,2.814c1.289,0.481,2.735,0.378,3.952-0.296c9.484-5.305,18.767-11.487,27.568-18.356
			c52.447-41.078,82.513-102.634,82.513-168.895c0-118.269-96.203-214.458-214.455-214.458c-8.104,0-16.334,0.457-24.487,1.359
			c-98.672,10.993-178.027,90.66-188.697,189.399c-8.037,74.477,22.332,146.466,81.243,192.57
			c8.793,6.893,18.065,13.061,27.585,18.381c0.708,0.393,1.495,0.599,2.281,0.599l1.652-0.302c1.289-0.487,2.312-1.507,2.784-2.814
			l7.741-21.464c0.768-2.124-0.091-4.499-2.046-5.634c-9.157-5.366-17.89-11.55-25.982-18.411
			c-42.643-36.191-66.179-88.889-64.575-144.592c2.723-94.851,79.07-172.583,173.797-177.004
			C657.017,306.59,743.58,390.538,743.58,494.11C743.58,547.719,720.019,598.466,678.92,633.334z"/>
		<path style="fill:#82BFAB;" d="M622.46,569.325c-1.537,1.259-2.118,3.35-1.446,5.223l7.995,22.139
			c0.49,1.386,1.622,2.457,3.02,2.898l1.404,0.206c0.974,0,1.93-0.303,2.735-0.884c9.708-6.972,18.41-15.263,25.837-24.596
			c18.362-23.052,28.057-50.795,28.057-80.202c0-60.757-43.145-113.863-102.576-126.325c-17.376-3.668-35.581-3.668-52.968,0
			c-59.432,12.461-102.577,65.568-102.577,126.325c0,29.407,9.707,57.135,28.069,80.202c7.426,9.332,16.111,17.624,25.824,24.596
			c1.192,0.847,2.736,1.101,4.134,0.677c1.416-0.441,2.536-1.513,3.038-2.898l7.976-22.139c0.678-1.873,0.097-3.964-1.428-5.223
			c-9-7.395-16.552-16.225-22.441-26.278c-8.703-14.839-13.296-31.755-13.296-48.937c0-40.646,25.678-77.339,63.903-91.314
			c21.34-7.804,45.239-7.804,66.56,0c38.219,13.974,63.898,50.668,63.898,91.314c0,17.182-4.594,34.112-13.278,48.952
			C639,553.132,631.447,561.965,622.46,569.325z"/>
		<path style="fill:#AAD4C8;" d="M535.128,492.064c0,14.289,11.584,25.867,25.873,25.867c14.289,0,25.866-11.578,25.866-25.867
			c0-14.289-11.577-25.869-25.866-25.869C546.712,466.194,535.128,477.775,535.128,492.064z"/>
	</g>
</g>
</svg>
